<svg xmlns="http://www.w3.org/2000/svg" viewBox="0 0 960 860" width="960" height="860">
  <style>
    text {
      font-family: 'Helvetica Neue', Helvetica, Arial, 'PingFang SC', 'Microsoft YaHei', sans-serif;
      fill: #111827;
    }
    .title { font-size: 24px; font-weight: 700; }
    .subtitle { font-size: 13px; fill: #6b7280; }
    .group-label { font-size: 12px; font-weight: 700; fill: #6b7280; letter-spacing: 0.08em; text-transform: uppercase; }
    .node-title { font-size: 15px; font-weight: 600; }
    .node-sub { font-size: 12px; fill: #6b7280; }
    .arrow-label { font-size: 11px; fill: #4b5563; }
    .legend { font-size: 12px; fill: #6b7280; }
    .note-title { font-size: 13px; font-weight: 700; fill: #92400e; }
    .note-body { font-size: 12px; fill: #78350f; }
    .group {
      fill: rgba(248, 250, 252, 0.9);
      stroke: #d1d5db;
      stroke-width: 1.5;
      stroke-dasharray: 8 6;
      rx: 18;
      ry: 18;
    }
    .node {
      fill: #ffffff;
      stroke: #d1d5db;
      stroke-width: 1.5;
      rx: 12;
      ry: 12;
    }
    .node-blue {
      fill: #eff6ff;
      stroke: #bfdbfe;
      stroke-width: 1.5;
      rx: 12;
      ry: 12;
    }
    .node-green {
      fill: #f0fdf4;
      stroke: #bbf7d0;
      stroke-width: 1.5;
      rx: 12;
      ry: 12;
    }
    .node-orange {
      fill: #fff7ed;
      stroke: #fed7aa;
      stroke-width: 1.5;
      rx: 12;
      ry: 12;
    }
    .node-purple {
      fill: #faf5ff;
      stroke: #ddd6fe;
      stroke-width: 1.5;
      rx: 12;
      ry: 12;
    }
    .node-teal {
      fill: #f0fdfa;
      stroke: #99f6e4;
      stroke-width: 1.5;
      rx: 12;
      ry: 12;
    }
  </style>

  <defs>
    <marker id="arrow-blue" markerWidth="10" markerHeight="7" refX="9" refY="3.5" orient="auto">
      <polygon points="0 0, 10 3.5, 0 7" fill="#2563eb"/>
    </marker>
    <marker id="arrow-green" markerWidth="10" markerHeight="7" refX="9" refY="3.5" orient="auto">
      <polygon points="0 0, 10 3.5, 0 7" fill="#059669"/>
    </marker>
    <marker id="arrow-orange" markerWidth="10" markerHeight="7" refX="9" refY="3.5" orient="auto">
      <polygon points="0 0, 10 3.5, 0 7" fill="#ea580c"/>
    </marker>
  </defs>

  <rect width="960" height="860" fill="#ffffff"/>

  <text x="480" y="36" text-anchor="middle" class="title">PageIndexDemo / PageIndex 边界图</text>
  <text x="480" y="58" text-anchor="middle" class="subtitle">当前代码真实边界：PageIndex 负责索引构建与文档读取；项目管理、候选召回、页内取证、答案生成都在 Demo 包装层</text>

  <rect class="group" x="220" y="90" width="380" height="610"/>
  <text x="240" y="112" class="group-label">PageIndexDemo 自定义能力</text>

  <rect class="group" x="640" y="90" width="260" height="610"/>
  <text x="660" y="112" class="group-label">PageIndex 原生能力</text>

  <rect x="52" y="132" width="132" height="96" rx="10" fill="#ffffff" stroke="#d1d5db" stroke-width="1.5"/>
  <rect x="52" y="132" width="132" height="22" rx="10" fill="#111827"/>
  <rect x="52" y="144" width="132" height="10" fill="#111827"/>
  <circle cx="66" cy="143" r="4" fill="#ef4444"/>
  <circle cx="78" cy="143" r="4" fill="#f59e0b"/>
  <circle cx="90" cy="143" r="4" fill="#10b981"/>
  <text x="118" y="181" text-anchor="middle" class="node-title">前端界面</text>
  <text x="118" y="201" text-anchor="middle" class="node-sub">项目管理 / 对话页</text>

  <path d="M 62 284 L 154 284 L 168 298 L 168 370 L 62 370 Z" fill="#ffffff" stroke="#d1d5db" stroke-width="1.5"/>
  <path d="M 154 284 L 154 298 L 168 298" fill="#f3f4f6" stroke="#d1d5db" stroke-width="1.2"/>
  <line x1="76" y1="320" x2="154" y2="320" stroke="#cbd5e1" stroke-width="1.2"/>
  <line x1="76" y1="338" x2="154" y2="338" stroke="#cbd5e1" stroke-width="1.2"/>
  <line x1="76" y1="356" x2="134" y2="356" stroke="#cbd5e1" stroke-width="1.2"/>
  <text x="115" y="306" text-anchor="middle" class="node-title">项目文档</text>
  <text x="115" y="387" text-anchor="middle" class="node-sub">PDF / Markdown</text>

  <rect class="node-blue" x="250" y="138" width="320" height="78"/>
  <text x="410" y="169" text-anchor="middle" class="node-title">Web / BFF</text>
  <text x="410" y="189" text-anchor="middle" class="node-sub">Next.js 路由、上传接口、聊天接口</text>
  <text x="410" y="205" text-anchor="middle" class="node-sub">接收 projectIds / message / 文件上传</text>

  <g transform="translate(250,244)">
    <ellipse cx="74" cy="18" rx="74" ry="18" fill="#f0fdf4" stroke="#bbf7d0" stroke-width="1.5"/>
    <rect x="0" y="18" width="148" height="110" fill="#f0fdf4" stroke="#bbf7d0" stroke-width="1.5"/>
    <ellipse cx="74" cy="128" rx="74" ry="18" fill="#dcfce7" stroke="#bbf7d0" stroke-width="1.5"/>
    <text x="74" y="54" text-anchor="middle" class="node-title">SQLite / app.db</text>
    <text x="74" y="76" text-anchor="middle" class="node-sub">projects / documents</text>
    <text x="74" y="92" text-anchor="middle" class="node-sub">conversations / messages</text>
    <text x="74" y="108" text-anchor="middle" class="node-sub">document_indexes</text>
  </g>

  <rect class="node-orange" x="430" y="250" width="140" height="98"/>
  <text x="500" y="284" text-anchor="middle" class="node-title">索引任务编排</text>
  <text x="500" y="304" text-anchor="middle" class="node-sub">index_document.py</text>
  <text x="500" y="320" text-anchor="middle" class="node-sub">调用 PageIndex</text>
  <text x="500" y="336" text-anchor="middle" class="node-sub">回写 ready 索引</text>

  <rect class="node-purple" x="250" y="432" width="148" height="90"/>
  <text x="324" y="464" text-anchor="middle" class="node-title">候选召回</text>
  <text x="324" y="484" text-anchor="middle" class="node-sub">select_documents.py</text>
  <text x="324" y="500" text-anchor="middle" class="node-sub">文档名 + 描述</text>
  <text x="324" y="516" text-anchor="middle" class="node-sub">LLM 优先，关键词回退</text>

  <rect class="node-purple" x="422" y="432" width="148" height="90"/>
  <text x="496" y="464" text-anchor="middle" class="node-title">页范围编排</text>
  <text x="496" y="484" text-anchor="middle" class="node-sub">choose_page_window</text>
  <text x="496" y="500" text-anchor="middle" class="node-sub">用结构树选最小页段</text>
  <text x="496" y="516" text-anchor="middle" class="node-sub">失败回退默认页窗</text>

  <rect class="node-purple" x="250" y="560" width="148" height="90"/>
  <text x="324" y="592" text-anchor="middle" class="node-title">页内取证</text>
  <text x="324" y="612" text-anchor="middle" class="node-sub">加载页文本</text>
  <text x="324" y="628" text-anchor="middle" class="node-sub">切分 evidence blocks</text>
  <text x="324" y="644" text-anchor="middle" class="node-sub">挑选 excerpt / focusPage</text>

  <rect class="node-purple" x="422" y="560" width="148" height="90"/>
  <text x="496" y="592" text-anchor="middle" class="node-title">答案生成</text>
  <text x="496" y="612" text-anchor="middle" class="node-sub">聚合 context_blocks</text>
  <text x="496" y="628" text-anchor="middle" class="node-sub">生成 answer + citations</text>
  <text x="496" y="644" text-anchor="middle" class="node-sub">回写聊天记录</text>

  <rect class="node-teal" x="670" y="154" width="200" height="92"/>
  <text x="770" y="186" text-anchor="middle" class="node-title">page_index()</text>
  <text x="770" y="206" text-anchor="middle" class="node-sub">构建结构树</text>
  <text x="770" y="222" text-anchor="middle" class="node-sub">生成 doc_description</text>
  <text x="770" y="238" text-anchor="middle" class="node-sub">输出结构化索引结果</text>

  <rect class="node-teal" x="670" y="346" width="200" height="92"/>
  <text x="770" y="378" text-anchor="middle" class="node-title">get_document_structure()</text>
  <text x="770" y="398" text-anchor="middle" class="node-sub">按 doc_id 返回结构树</text>
  <text x="770" y="414" text-anchor="middle" class="node-sub">去掉 text 字段</text>
  <text x="770" y="430" text-anchor="middle" class="node-sub">供页范围选择使用</text>

  <rect class="node-teal" x="670" y="538" width="200" height="92"/>
  <text x="770" y="570" text-anchor="middle" class="node-title">get_page_content()</text>
  <text x="770" y="590" text-anchor="middle" class="node-sub">按页码返回页面文本</text>
  <text x="770" y="606" text-anchor="middle" class="node-sub">优先读缓存 pages_json</text>
  <text x="770" y="622" text-anchor="middle" class="node-sub">必要时回退读 PDF</text>

  <rect class="node-orange" x="340" y="736" width="280" height="72"/>
  <rect x="345" y="741" width="270" height="62" rx="10" ry="10" fill="none" stroke="#fdba74" stroke-width="0.9" opacity="0.75"/>
  <text x="480" y="766" text-anchor="middle" class="node-title">OpenAI-compatible LLM endpoint</text>
  <text x="480" y="786" text-anchor="middle" class="node-sub">被 Demo 编排层和 PageIndex 内部同时调用</text>

  <line x1="184" y1="180" x2="250" y2="176" stroke="#2563eb" stroke-width="2" marker-end="url(#arrow-blue)"/>
  <rect x="188" y="160" width="54" height="18" fill="#ffffff"/>
  <text x="215" y="173" text-anchor="middle" class="arrow-label">上传 / 提问</text>

  <line x1="168" y1="327" x2="430" y2="299" stroke="#2563eb" stroke-width="2" marker-end="url(#arrow-blue)"/>
  <rect x="250" y="296" width="74" height="18" fill="#ffffff"/>
  <text x="287" y="309" text-anchor="middle" class="arrow-label">storage_path</text>

  <path d="M 410 216 V 250 H 500" fill="none" stroke="#2563eb" stroke-width="2" marker-end="url(#arrow-blue)"/>
  <rect x="422" y="224" width="88" height="18" fill="#ffffff"/>
  <text x="466" y="237" text-anchor="middle" class="arrow-label">创建索引任务</text>

  <path d="M 410 216 V 460 H 250" fill="none" stroke="#2563eb" stroke-width="2" marker-end="url(#arrow-blue)"/>
  <rect x="324" y="360" width="112" height="18" fill="#ffffff"/>
  <text x="380" y="373" text-anchor="middle" class="arrow-label">query + projectIds</text>

  <line x1="398" y1="477" x2="422" y2="477" stroke="#2563eb" stroke-width="2" marker-end="url(#arrow-blue)"/>
  <rect x="370" y="460" width="40" height="18" fill="#ffffff"/>
  <text x="390" y="473" text-anchor="middle" class="arrow-label">top docs</text>

  <path d="M 496 522 V 540 H 324 V 560" fill="none" stroke="#2563eb" stroke-width="2" marker-end="url(#arrow-blue)"/>
  <rect x="380" y="534" width="66" height="18" fill="#ffffff"/>
  <text x="413" y="547" text-anchor="middle" class="arrow-label">selected pages</text>

  <line x1="398" y1="605" x2="422" y2="605" stroke="#2563eb" stroke-width="2" marker-end="url(#arrow-blue)"/>
  <rect x="366" y="588" width="46" height="18" fill="#ffffff"/>
  <text x="389" y="601" text-anchor="middle" class="arrow-label">evidence</text>

  <path d="M 570 605 H 586 V 216 H 410" fill="none" stroke="#2563eb" stroke-width="2" marker-end="url(#arrow-blue)"/>
  <rect x="486" y="372" width="94" height="18" fill="#ffffff"/>
  <text x="533" y="385" text-anchor="middle" class="arrow-label">answer + citations</text>

  <path d="M 398 300 H 430" fill="none" stroke="#059669" stroke-width="1.7" marker-end="url(#arrow-green)"/>
  <rect x="352" y="274" width="68" height="18" fill="#ffffff"/>
  <text x="386" y="287" text-anchor="middle" class="arrow-label">read docs</text>

  <path d="M 430 318 H 398" fill="none" stroke="#059669" stroke-width="1.7" stroke-dasharray="6 4" marker-end="url(#arrow-green)"/>
  <rect x="402" y="328" width="94" height="18" fill="#ffffff"/>
  <text x="449" y="341" text-anchor="middle" class="arrow-label">write ready index</text>

  <path d="M 398 460 V 410 H 324 V 432" fill="none" stroke="#059669" stroke-width="1.7" marker-end="url(#arrow-green)"/>
  <rect x="280" y="392" width="78" height="18" fill="#ffffff"/>
  <text x="319" y="405" text-anchor="middle" class="arrow-label">ready docs</text>

  <path d="M 500 250 H 670" fill="none" stroke="#2563eb" stroke-width="2" marker-end="url(#arrow-blue)"/>
  <rect x="556" y="232" width="72" height="18" fill="#ffffff"/>
  <text x="592" y="245" text-anchor="middle" class="arrow-label">page_index(doc)</text>

  <path d="M 670 216 H 570" fill="none" stroke="#2563eb" stroke-width="2" marker-end="url(#arrow-blue)"/>
  <rect x="582" y="198" width="74" height="18" fill="#ffffff"/>
  <text x="619" y="211" text-anchor="middle" class="arrow-label">structure + desc</text>

  <path d="M 570 477 H 670" fill="none" stroke="#2563eb" stroke-width="2" marker-end="url(#arrow-blue)"/>
  <rect x="582" y="459" width="68" height="18" fill="#ffffff"/>
  <text x="616" y="472" text-anchor="middle" class="arrow-label">doc_id</text>

  <path d="M 670 392 H 570" fill="none" stroke="#2563eb" stroke-width="2" marker-end="url(#arrow-blue)"/>
  <rect x="584" y="374" width="72" height="18" fill="#ffffff"/>
  <text x="620" y="387" text-anchor="middle" class="arrow-label">structure JSON</text>

  <path d="M 398 605 H 670" fill="none" stroke="#2563eb" stroke-width="2" marker-end="url(#arrow-blue)"/>
  <rect x="500" y="587" width="92" height="18" fill="#ffffff"/>
  <text x="546" y="600" text-anchor="middle" class="arrow-label">doc_id + pages</text>

  <path d="M 670 584 H 398" fill="none" stroke="#2563eb" stroke-width="2" marker-end="url(#arrow-blue)"/>
  <rect x="500" y="566" width="92" height="18" fill="#ffffff"/>
  <text x="546" y="579" text-anchor="middle" class="arrow-label">page text evidence</text>

  <path d="M 324 522 C 324 650, 380 690, 430 736" fill="none" stroke="#ea580c" stroke-width="1.7" marker-end="url(#arrow-orange)"/>
  <rect x="286" y="662" width="70" height="18" fill="#ffffff"/>
  <text x="321" y="675" text-anchor="middle" class="arrow-label">文档筛选</text>

  <path d="M 496 522 C 496 650, 476 690, 470 736" fill="none" stroke="#ea580c" stroke-width="1.7" marker-end="url(#arrow-orange)"/>
  <rect x="480" y="662" width="68" height="18" fill="#ffffff"/>
  <text x="514" y="675" text-anchor="middle" class="arrow-label">页段选择</text>

  <path d="M 496 650 C 496 692, 510 712, 530 736" fill="none" stroke="#ea580c" stroke-width="1.7" marker-end="url(#arrow-orange)"/>
  <rect x="518" y="692" width="60" height="18" fill="#ffffff"/>
  <text x="548" y="705" text-anchor="middle" class="arrow-label">最终回答</text>

  <path d="M 770 246 C 770 676, 650 700, 590 736" fill="none" stroke="#ea580c" stroke-width="1.7" marker-end="url(#arrow-orange)"/>
  <rect x="700" y="486" width="96" height="18" fill="#ffffff"/>
  <text x="748" y="499" text-anchor="middle" class="arrow-label">结构解析 / 摘要</text>

  <g transform="translate(56,736)">
    <rect x="0" y="0" width="206" height="70" fill="#ffffff" stroke="#e5e7eb" rx="10" ry="10"/>
    <line x1="16" y1="18" x2="50" y2="18" stroke="#2563eb" stroke-width="2" marker-end="url(#arrow-blue)"/>
    <text x="60" y="22" class="legend">主调用 / 编排链路</text>
    <line x1="16" y1="38" x2="50" y2="38" stroke="#059669" stroke-width="1.7" marker-end="url(#arrow-green)"/>
    <text x="60" y="42" class="legend">SQLite 读写</text>
    <line x1="16" y1="58" x2="50" y2="58" stroke="#ea580c" stroke-width="1.7" marker-end="url(#arrow-orange)"/>
    <text x="60" y="62" class="legend">LLM 调用</text>
  </g>

  <g transform="translate(660,736)">
    <rect x="0" y="0" width="252" height="74" fill="#fffbeb" stroke="#fcd34d" rx="12" ry="12"/>
    <text x="16" y="24" class="note-title">边界结论</text>
    <text x="16" y="44" class="note-body">PageIndex 当前不负责项目管理、候选召回、</text>
    <text x="16" y="60" class="note-body">页内取证、最终答案生成或聊天持久化。</text>
  </g>
</svg>
