<svg xmlns="http://www.w3.org/2000/svg" viewBox="0 0 1360 860" width="1360" height="860">
  <defs>
    <marker id="arrowA" markerWidth="10" markerHeight="7" refX="9" refY="3.5" orient="auto">
      <polygon points="0 0, 10 3.5, 0 7" fill="#7c3aed"/>
    </marker>
    <marker id="arrowB" markerWidth="10" markerHeight="7" refX="9" refY="3.5" orient="auto">
      <polygon points="0 0, 10 3.5, 0 7" fill="#10b981"/>
    </marker>
    <marker id="arrowC" markerWidth="10" markerHeight="7" refX="9" refY="3.5" orient="auto">
      <polygon points="0 0, 10 3.5, 0 7" fill="#2563eb"/>
    </marker>
    <marker id="arrowE" markerWidth="10" markerHeight="7" refX="9" refY="3.5" orient="auto">
      <polygon points="0 0, 10 3.5, 0 7" fill="#f97316"/>
    </marker>
    <marker id="arrowF" markerWidth="10" markerHeight="7" refX="9" refY="3.5" orient="auto">
      <polygon points="0 0, 10 3.5, 0 7" fill="#7c3aed"/>
    </marker>
    <marker id="arrowG" markerWidth="10" markerHeight="7" refX="9" refY="3.5" orient="auto">
      <polygon points="0 0, 10 3.5, 0 7" fill="#ef4444"/>
    </marker>
    <marker id="arrowH" markerWidth="10" markerHeight="7" refX="9" refY="3.5" orient="auto">
      <polygon points="0 0, 10 3.5, 0 7" fill="#6b7280"/>
    </marker>
    <filter id="shadowSoft" x="-20%" y="-20%" width="140%" height="160%">
      <feDropShadow dx="0" dy="3" stdDeviation="6" flood-color="#0f172a" flood-opacity="0.12"/>
    </filter>
    <filter id="shadowGlass" x="-20%" y="-20%" width="140%" height="160%">
      <feDropShadow dx="0" dy="10" stdDeviation="16" flood-color="#020617" flood-opacity="0.28"/>
    </filter>
    <style>
    text { font-family: 'Helvetica Neue', Helvetica, Arial, 'PingFang SC', 'Microsoft YaHei', sans-serif; }
    .title { font-size: 30px; font-weight: 700; fill: #111827; }
    .subtitle { font-size: 14px; font-weight: 500; fill: #6b7280; }
    .section { font-size: 13px; font-weight: 700; fill: #2563eb; letter-spacing: 1.4px; }
    .section-sub { font-size: 12px; font-weight: 500; fill: #94a3b8; }
    .node-title { font-size: 18px; font-weight: 700; fill: #111827; }
    .node-sub { font-size: 12px; font-weight: 500; fill: #6b7280; }
    .node-type { font-size: 12px; font-weight: 700; fill: #9ca3af; letter-spacing: 0.08em; }
    .arrow-label { font-size: 12px; font-weight: 600; fill: #6b7280; }
    .legend { font-size: 12px; font-weight: 500; fill: #6b7280; }
    .footnote { font-size: 12px; font-weight: 500; fill: #94a3b8; }
    </style>
  </defs>
  <rect width="1360.0" height="860.0" fill="#ffffff"/>
  <text x="680.0" y="56" text-anchor="middle" class="title">PageIndexDemo 当前架构</text>
  <text x="680.0" y="82" text-anchor="middle" class="subtitle">按项目管理文档与对话的本地知识库：Next.js Web 应用、共享 SQLite/上传目录、Python 索引 Worker、检索 API 与 PageIndex 核心</text>
  <rect x="40.0" y="104.0" width="1280.0" height="120.0" rx="16.0" fill="none" stroke="#dbe5f1" stroke-width="1.4" stroke-dasharray="6 5"/>
  <text x="24.0" y="164.0" text-anchor="start" dominant-baseline="middle" font-size="14.0" font-weight="600" fill="#6b7280">客户端与 Web 层</text>
  <rect x="40.0" y="254.0" width="1280.0" height="184.0" rx="16.0" fill="none" stroke="#dbe5f1" stroke-width="1.4" stroke-dasharray="6 5"/>
  <text x="24.0" y="346.0" text-anchor="start" dominant-baseline="middle" font-size="14.0" font-weight="600" fill="#6b7280">应用状态层</text>
  <rect x="40.0" y="470.0" width="1280.0" height="204.0" rx="16.0" fill="none" stroke="#dbe5f1" stroke-width="1.4" stroke-dasharray="6 5"/>
  <text x="24.0" y="572.0" text-anchor="start" dominant-baseline="middle" font-size="14.0" font-weight="600" fill="#6b7280">Python 服务层</text>
  <rect x="40.0" y="706.0" width="1280.0" height="110.0" rx="16.0" fill="none" stroke="#dbe5f1" stroke-width="1.4" stroke-dasharray="6 5"/>
  <text x="24.0" y="761.0" text-anchor="start" dominant-baseline="middle" font-size="14.0" font-weight="600" fill="#6b7280">外部模型层</text>
  <path d="M 274.0,167.0 L 338.0,167.0" fill="none" stroke="#2563eb" stroke-width="2.4" marker-end="url(#arrowC)"/>
  <path d="M 594.0,167.0 L 682.0,167.0" fill="none" stroke="#7c3aed" stroke-width="2.4" marker-end="url(#arrowA)"/>
  <path d="M 825.0,196.0 L 826.0,226.0 L 826.0,286.0 L 888.0,286.0 L 888.0,306.0" fill="none" stroke="#7c3aed" stroke-width="2.4" marker-end="url(#arrowA)"/>
  <path d="M 744.0,351.0 L 723.6,351.0 L 326.4,352.0 L 306.0,352.0" fill="none" stroke="#10b981" stroke-width="2.4" marker-end="url(#arrowB)" stroke-dasharray="6,4"/>
  <path d="M 744.0,351.0 L 598.0,351.0" fill="none" stroke="#10b981" stroke-width="2.4" marker-end="url(#arrowB)" stroke-dasharray="6,4"/>
  <path d="M 825.0,196.0 L 930.0,226.0 L 930.0,500.0 L 620.0,500.0 L 620.0,536.0" fill="none" stroke="#2563eb" stroke-width="2.4" marker-end="url(#arrowC)"/>
  <path d="M 206.0,536.0 L 206.0,515.6 L 212.0,424.4 L 212.0,404.0" fill="none" stroke="#2563eb" stroke-width="2.4" marker-end="url(#arrowC)"/>
  <path d="M 206.0,536.0 L 230.0,536.0 L 230.0,436.0 L 496.0,436.0 L 496.0,396.0" fill="none" stroke="#2563eb" stroke-width="2.4" marker-end="url(#arrowC)"/>
  <path d="M 324.0,573.0 L 344.4,573.0 L 344.4,512.0 L 869.6,512.0 L 869.6,573.0 L 890.0,573.0" fill="none" stroke="#7c3aed" stroke-width="2.4" marker-end="url(#arrowA)"/>
  <path d="M 890.0,573.0 L 890.0,654.0 L 212.0,654.0 L 212.0,404.0" fill="none" stroke="#10b981" stroke-width="2.4" marker-end="url(#arrowB)" stroke-dasharray="6,4"/>
  <path d="M 456.0,573.0 L 456.0,574.0 L 420.0,574.0 L 420.0,648.0 L 250.0,648.0 L 250.0,404.0 L 212.0,404.0" fill="none" stroke="#2563eb" stroke-width="2.4" marker-end="url(#arrowC)"/>
  <path d="M 784.0,573.0 L 890.0,573.0" fill="none" stroke="#f97316" stroke-width="2.4" marker-end="url(#arrowE)"/>
  <path d="M 1021.0,624.0 L 1021.0,644.4 L 681.0,721.6 L 681.0,742.0" fill="none" stroke="#2563eb" stroke-width="2.4" marker-end="url(#arrowC)"/>
  <path d="M 620.0,536.0 L 620.0,480.0 L 750.0,480.0 L 750.0,226.0 L 825.0,196.0" fill="none" stroke="#f97316" stroke-width="2.4" marker-end="url(#arrowE)"/>
  <path d="M 682.0,167.0 L 682.0,168.0 L 332.0,168.0 L 332.0,300.0 L 212.0,300.0" fill="none" stroke="#10b981" stroke-width="2.4" marker-end="url(#arrowB)" stroke-dasharray="6,4"/>
  <rect x="86.0" y="138.0" width="188.0" height="58.0" rx="10.0" fill="#eff6ff" stroke="#bfdbfe" stroke-width="1.8"/>
  <text x="180.0" y="156.0" text-anchor="middle" class="node-type">项目 / 对话</text>
  <text x="180.0" y="173.0" text-anchor="middle" class="node-title">浏览器界面</text>
  <rect x="338.0" y="132.0" width="256.0" height="70.0" rx="10.0" fill="#eef2ff" stroke="#c7d2fe" stroke-width="2.0" filter="url(#shadowSoft)"/>
  <rect x="344.0" y="138.0" width="244.0" height="58.0" rx="7.0" fill="none" stroke="#c7d2fe" stroke-width="1.2" opacity="0.65"/>
  <text x="466.0" y="150.0" text-anchor="middle" class="node-type">端口 3000</text>
  <text x="466.0" y="173.0" text-anchor="middle" class="node-title">Next.js Web 应用</text>
  <text x="466.0" y="195.0" text-anchor="middle" class="node-sub">App Router 页面与组件</text>
  <rect x="682.0" y="138.0" width="286.0" height="58.0" rx="10.0" fill="#fff7ed" stroke="#fed7aa" stroke-width="1.8"/>
  <text x="825.0" y="156.0" text-anchor="middle" class="node-type">上传 / 对话 / 项目</text>
  <text x="825.0" y="173.0" text-anchor="middle" class="node-title">BFF API 路由</text>
  <ellipse cx="212.0" cy="313.0" rx="47.0" ry="13.0" fill="#f0fdf4" stroke="#bbf7d0" stroke-width="2.2"/>
  <rect x="118.0" y="313.0" width="188.0" height="78.0" fill="#f0fdf4" stroke="#bbf7d0" stroke-width="2.2"/>
  <ellipse cx="212.0" cy="391.0" rx="47.0" ry="13.0" fill="#f0fdf4" stroke="#bbf7d0" stroke-width="2.2"/>
  <ellipse cx="212.0" cy="339.52" rx="47.0" ry="13.0" fill="none" stroke="#bbf7d0" stroke-opacity="0.45" stroke-width="1.2"/>
  <ellipse cx="212.0" cy="362.4" rx="47.0" ry="13.0" fill="none" stroke="#bbf7d0" stroke-opacity="0.25" stroke-width="1.2"/>
  <text x="212.0" y="346.0" text-anchor="middle" class="node-title">SQLite app.db</text>
  <text x="212.0" y="370.0" text-anchor="middle" class="node-sub">项目、文档、任务、会话、索引</text>
  <path d="M 394.0 306.0 L 580.0 306.0 L 598.0 324.0 L 598.0 396.0 L 394.0 396.0 Z" fill="#fefce8" stroke="#fde68a" stroke-width="2.0" filter="url(#shadowSoft)"/>
  <path d="M 580.0 306.0 L 580.0 324.0 L 598.0 324.0" fill="none" stroke="#fde68a" stroke-width="2.0"/>
  <line x1="412.0" y1="332.0" x2="570.0" y2="332.0" stroke="#c4b5fd" stroke-width="1.2"/>
  <line x1="412.0" y1="346.0" x2="570.0" y2="346.0" stroke="#c4b5fd" stroke-width="1.2"/>
  <line x1="412.0" y1="360.0" x2="570.0" y2="360.0" stroke="#c4b5fd" stroke-width="1.2"/>
  <line x1="412.0" y1="374.0" x2="570.0" y2="374.0" stroke="#c4b5fd" stroke-width="1.2"/>
  <text x="496.0" y="422.0" text-anchor="middle" class="node-title">var/uploads</text>
  <text x="496.0" y="440.0" text-anchor="middle" class="node-sub">各项目的原始 PDF 文件</text>
  <rect x="744.0" y="306.0" width="288.0" height="90.0" rx="10.0" fill="#f8fafc" stroke="#cbd5e1" stroke-width="1.8"/>
  <text x="888.0" y="324.0" text-anchor="middle" class="node-type">共享访问</text>
  <text x="888.0" y="357.0" text-anchor="middle" class="node-title">Web 仓储与存储</text>
  <text x="888.0" y="379.0" text-anchor="middle" class="node-sub">项目/文档/任务存储 + 本地文件</text>
  <rect x="88.0" y="536.0" width="236.0" height="74.0" rx="10.0" fill="#eef2ff" stroke="#c7d2fe" stroke-width="2.0" filter="url(#shadowSoft)"/>
  <rect x="94.0" y="542.0" width="224.0" height="62.0" rx="7.0" fill="none" stroke="#c7d2fe" stroke-width="1.2" opacity="0.65"/>
  <text x="206.0" y="554.0" text-anchor="middle" class="node-type">后台循环</text>
  <text x="206.0" y="579.0" text-anchor="middle" class="node-title">索引 Worker</text>
  <text x="206.0" y="601.0" text-anchor="middle" class="node-sub">领取排队任务并更新状态</text>
  <rect x="456.0" y="536.0" width="328.0" height="74.0" rx="10.0" fill="#eef2ff" stroke="#c7d2fe" stroke-width="2.0" filter="url(#shadowSoft)"/>
  <rect x="462.0" y="542.0" width="316.0" height="62.0" rx="7.0" fill="none" stroke="#c7d2fe" stroke-width="1.2" opacity="0.65"/>
  <text x="620.0" y="554.0" text-anchor="middle" class="node-type">端口 8001</text>
  <text x="620.0" y="579.0" text-anchor="middle" class="node-title">FastAPI 检索 API</text>
  <text x="620.0" y="601.0" text-anchor="middle" class="node-sub">query_engine + select_documents + 项目检索</text>
  <rect x="890.0" y="522.0" width="262.0" height="102.0" rx="10.0" fill="#faf5ff" stroke="#ddd6fe" stroke-width="1.8"/>
  <text x="1021.0" y="540.0" text-anchor="middle" class="node-type">索引 + 检索</text>
  <text x="1021.0" y="579.0" text-anchor="middle" class="node-title">PageIndex 核心</text>
  <text x="1021.0" y="601.0" text-anchor="middle" class="node-sub">page_index.py + retrieve.py + utils.py</text>
  <rect x="500.0" y="742.0" width="362.0" height="50.0" rx="10.0" fill="#ecfeff" stroke="#a5f3fc" stroke-width="1.8"/>
  <text x="681.0" y="760.0" text-anchor="middle" class="node-type">OPENAI_BASE_URL / OPENAI_API_KEY</text>
  <text x="681.0" y="773.0" text-anchor="middle" class="node-title">OpenAI 兼容 LLM 端点</text>
  <rect x="260.5" y="153.0" width="91" height="20" rx="6" fill="#ffffff" opacity="0.94"/>
  <text x="306.0" y="167.0" text-anchor="middle" class="arrow-label">页面访问 / 提交问题</text>
  <rect x="592.5" y="153.0" width="91" height="20" rx="6" fill="#ffffff" opacity="0.94"/>
  <text x="638.0" y="167.0" text-anchor="middle" class="arrow-label">通过路由触发服务端操作</text>
  <rect x="801.0" y="256.0" width="112" height="20" rx="6" fill="#ffffff" opacity="0.94"/>
  <text x="857.0" y="270.0" text-anchor="middle" class="arrow-label">创建项目、保存文档、入队任务</text>
  <rect x="465.5" y="337.5" width="119" height="20" rx="6" fill="#ffffff" opacity="0.94"/>
  <text x="525.0" y="351.5" text-anchor="middle" class="arrow-label">元数据 / 任务 / 对话历史</text>
  <rect x="629.0" y="321.0" width="84" height="20" rx="6" fill="#ffffff" opacity="0.94"/>
  <text x="671.0" y="335.0" text-anchor="middle" class="arrow-label">持久化 PDF 文件</text>
  <rect x="722.5" y="470.0" width="105" height="20" rx="6" fill="#ffffff" opacity="0.94"/>
  <text x="775.0" y="484.0" text-anchor="middle" class="arrow-label">按项目 ID 发起对话检索</text>
  <rect x="181.0" y="440.0" width="56" height="20" rx="6" fill="#ffffff" opacity="0.94"/>
  <text x="209.0" y="454.0" text-anchor="middle" class="arrow-label">领取排队任务</text>
  <rect x="331.5" y="406.0" width="63" height="20" rx="6" fill="#ffffff" opacity="0.94"/>
  <text x="363.0" y="420.0" text-anchor="middle" class="arrow-label">读取源 PDF</text>
  <rect x="537.0" y="482.0" width="140" height="20" rx="6" fill="#ffffff" opacity="0.94"/>
  <text x="607.0" y="496.0" text-anchor="middle" class="arrow-label">执行 page_index(doc)</text>
  <rect x="456.5" y="624.0" width="189" height="20" rx="6" fill="#ffffff" opacity="0.94"/>
  <text x="551.0" y="638.0" text-anchor="middle" class="arrow-label">写回 document_indexes 与就绪状态</text>
  <rect x="293.0" y="618.0" width="84" height="20" rx="6" fill="#ffffff" opacity="0.94"/>
  <text x="335.0" y="632.0" text-anchor="middle" class="arrow-label">加载已就绪文档与索引</text>
  <rect x="802.0" y="543.0" width="70" height="20" rx="6" fill="#ffffff" opacity="0.94"/>
  <text x="837.0" y="557.0" text-anchor="middle" class="arrow-label">读取结构与页内容</text>
  <rect x="756.5" y="653.0" width="189" height="20" rx="6" fill="#ffffff" opacity="0.94"/>
  <text x="851.0" y="667.0" text-anchor="middle" class="arrow-label">为索引/检索调用 llm_completion()</text>
  <rect x="653.5" y="450.0" width="63" height="20" rx="6" fill="#ffffff" opacity="0.94"/>
  <text x="685.0" y="464.0" text-anchor="middle" class="arrow-label">返回回答与引用</text>
  <rect x="286.0" y="220.0" width="56" height="20" rx="6" fill="#ffffff" opacity="0.94"/>
  <text x="314.0" y="234.0" text-anchor="middle" class="arrow-label">追加对话消息</text>
  <rect x="990.0" y="730.0" width="149" height="112" rx="10" fill="#ffffff" opacity="0.88"/>
  <line x1="1000.0" y1="744.0" x2="1030.0" y2="744.0" stroke="#2563eb" stroke-width="2.4" marker-end="url(#arrowC)"/>
  <text x="1040.0" y="748.0" class="legend">主请求 / 读取链路</text>
  <line x1="1000.0" y1="766.0" x2="1030.0" y2="766.0" stroke="#7c3aed" stroke-width="2.4" marker-end="url(#arrowA)"/>
  <text x="1040.0" y="770.0" class="legend">应用编排</text>
  <line x1="1000.0" y1="788.0" x2="1030.0" y2="788.0" stroke="#10b981" stroke-width="2.4" marker-end="url(#arrowB)"/>
  <text x="1040.0" y="792.0" class="legend">状态写入 / 持久化</text>
  <line x1="1000.0" y1="810.0" x2="1030.0" y2="810.0" stroke="#f97316" stroke-width="2.4" marker-end="url(#arrowE)"/>
  <text x="1040.0" y="814.0" class="legend">检索证据 / 响应载荷</text>
  <text x="42.0" y="844.0" class="footnote">代码锚点：web/app/api/*、web/lib/*、services/index_worker/*、services/retrieval_api/*、pageindex/*</text>
</svg>